<?xml version="1.0" encoding="iso-8859-1"?>
<!-- Generator: Adobe Illustrator 16.0.0, SVG Export Plug-In . SVG Version: 6.00 Build 0)  -->
<!DOCTYPE svg PUBLIC "-//W3C//DTD SVG 1.1//EN" "http://www.w3.org/Graphics/SVG/1.1/DTD/svg11.dtd">
<svg version="1.1" id="Capa_1" xmlns="http://www.w3.org/2000/svg" xmlns:xlink="http://www.w3.org/1999/xlink" x="0px" y="0px"
	 width="525.399px" height="525.399px" viewBox="0 0 525.399 525.399" style="enable-background:new 0 0 525.399 525.399;"
	 xml:space="preserve">
<g>
	<g>
		<path d="M525.399,272.509c0-41.769-38.908-78.202-100.189-101.533c1.285-10.089,2.254-20.026,2.522-29.584
			c1.67-57.118-15.181-97.463-47.409-113.595c-9.691-4.852-20.458-7.315-32.007-7.315c-30.489,0-65.298,17.591-99.29,47.724
			c-36.999-23.021-73.11-36.03-103.746-36.03c-20.335,0-37.425,5.646-50.795,16.786C64.201,74.22,59.787,123.112,77.326,180.674
			C29.38,203.835,0,236.181,0,272.509c0,41.36,38.12,77.501,98.362,100.879c-0.239,3.525-0.59,7.146-0.695,10.602
			c-1.664,57.125,15.186,97.47,47.409,113.619c9.687,4.857,20.447,7.31,32.001,7.31c35.201,0,76.14-23.331,114.932-62.483
			c31.458,17.246,61.795,26.892,88.104,26.892c20.341,0,37.437-5.651,50.807-16.792c23.156-19.313,31.097-52.5,25.795-92.739
			C499.43,337.024,525.399,306.548,525.399,272.509z M348.316,44.396c7.788,0,14.946,1.6,21.287,4.77
			c23.098,11.566,35.592,44.928,34.214,91.52c-0.21,7.298-0.829,14.83-1.682,22.484c-17.551-5.284-36.443-9.639-56.563-12.81
			c-24.405-26.84-50.328-49.99-76.251-68.527C297.136,58.123,324.752,44.396,348.316,44.396z M136.768,297.381
			c8.431,11.946,17.387,23.88,27.213,35.673c11.981,14.363,24.452,27.781,37.192,40.264c-28.007-3.41-54.077-9.027-77.209-16.43
			C126.411,337.819,130.696,317.851,136.768,297.381z M107.365,193.91c16.587-6.335,35.107-11.671,55.052-15.84
			c-5.045,8.798-9.973,17.767-14.637,27.079c-6.3,12.582-11.911,25.257-17.095,37.91
			C121.296,226.302,113.571,209.814,107.365,193.91z M182.361,317.733c-13.394-16.066-25.339-32.532-36.018-49.008
			c6.48-17.574,14.03-35.282,22.828-52.874c7.584-15.146,15.811-29.555,24.417-43.275c21.977-3.024,45.202-4.671,69.117-4.671
			c24.551,0,48.396,1.746,70.886,4.928c3.188,3.608,6.353,7.216,9.458,10.953c15.683,18.806,29.566,38.155,41.501,57.416
			c-7.462,22.589-16.921,45.564-28.317,68.322c-11.619,23.227-24.674,44.864-38.522,64.54c-17.749,1.915-36.117,3.048-55.017,3.048
			c-7.608,0-15.116-0.199-22.555-0.514C220.23,359.421,200.63,339.663,182.361,317.733z M370.293,179.646
			c9.809,2.236,19.231,4.735,28.235,7.52c-1.437,7.736-3.165,15.583-5.174,23.535C386.255,200.309,378.455,189.952,370.293,179.646z
			 M377.626,320.233c8.571-17.143,16.021-34.401,22.514-51.613c14.386,27.312,24.627,53.797,30.021,77.641
			c-22.934,9.996-50.422,17.96-80.665,23.32C359.444,354.05,368.927,337.608,377.626,320.233z M251.501,98.549
			c18.987,13.254,38.137,29.228,56.681,47.427c-14.771-1.22-29.894-1.985-45.465-1.985c-17.726,0-34.956,0.858-51.602,2.429
			C224.084,128.442,237.699,112.41,251.501,98.549z M109.806,67.33c8.956-7.461,20.891-11.239,35.475-11.239
			c24.744,0,54.584,10.609,85.733,29.21c-18.006,18.52-35.487,40.525-51.689,65.146c-29.391,4.659-56.295,11.742-79.877,20.791
			C85.459,124.571,87.66,85.792,109.806,67.33z M100.966,348.538c-47-19.232-77.051-46.381-77.051-76.029
			c0-26.163,23.482-50.393,61.305-68.971c8.612,22.087,20.207,45.091,34.582,68.306
			C110.821,298.128,104.522,323.958,100.966,348.538z M177.089,480.979c-7.782,0-14.946-1.6-21.287-4.764
			c-23.097-11.561-35.568-44.934-34.22-91.537c0.023-1.062,0.169-2.207,0.216-3.258c32.071,9.809,68.913,16.324,108.849,18.613
			c13.382,11.152,26.892,21.101,40.321,29.801C238.289,461.841,204.875,480.979,177.089,480.979z M287.747,412.108
			c-5.604-3.526-11.233-7.264-16.885-11.28c9.26-0.128,18.38-0.49,27.371-1.062C294.754,404.028,291.273,408.138,287.747,412.108z
			 M415.611,434.179c-8.956,7.449-20.878,11.232-35.486,11.232c-20.891,0-45.424-7.555-71.301-21.088
			c7.532-8.665,14.947-17.89,22.151-27.664c38.769-4.928,73.8-13.896,103.074-26.098
			C436.584,398.715,430.955,421.38,415.611,434.179z M452.138,335.133c-7.474-30.267-21.591-63.453-41.582-97.218
			c4.414-14.468,7.986-28.731,10.73-42.703c48.811,19.302,80.199,47.006,80.199,77.297
			C501.485,295.781,482.849,317.513,452.138,335.133z"/>
		<path d="M262.706,214.514c24.037,0,43.538,19.489,43.538,43.538c0,24.043-19.501,43.533-43.538,43.533
			c-24.049,0-43.538-19.489-43.538-43.533C219.168,234.003,238.657,214.514,262.706,214.514z"/>
	</g>
</g>
<g>
</g>
<g>
</g>
<g>
</g>
<g>
</g>
<g>
</g>
<g>
</g>
<g>
</g>
<g>
</g>
<g>
</g>
<g>
</g>
<g>
</g>
<g>
</g>
<g>
</g>
<g>
</g>
<g>
</g>
</svg>
